<svg width="1366" height="2136" fill="none" xmlns="http://www.w3.org/2000/svg"><circle cx="1288" cy="1624" r="2" fill="#ABB2BF"/><circle cx="1312.75" cy="1624" r="2" fill="#ABB2BF"/><circle cx="1337.5" cy="1624" r="2" fill="#ABB2BF"/><circle cx="1362.25" cy="1624" r="2" fill="#ABB2BF"/><circle cx="1288" cy="1648.75" r="2" fill="#ABB2BF"/><circle cx="1312.75" cy="1648.75" r="2" fill="#ABB2BF"/><circle cx="1337.5" cy="1648.75" r="2" fill="#ABB2BF"/><circle cx="1362.25" cy="1648.75" r="2" fill="#ABB2BF"/><circle cx="1288" cy="1673.5" r="2" fill="#ABB2BF"/><circle cx="1312.75" cy="1673.5" r="2" fill="#ABB2BF"/><circle cx="1337.5" cy="1673.5" r="2" fill="#ABB2BF"/><circle cx="1362.25" cy="1673.5" r="2" fill="#ABB2BF"/><circle cx="1288" cy="1698.25" r="2" fill="#ABB2BF"/><circle cx="1312.75" cy="1698.25" r="2" fill="#ABB2BF"/><circle cx="1337.5" cy="1698.25" r="2" fill="#ABB2BF"/><circle cx="1362.25" cy="1698.25" r="2" fill="#ABB2BF"/><circle cx="1288" cy="1723" r="2" fill="#ABB2BF"/><circle cx="1312.75" cy="1723" r="2" fill="#ABB2BF"/><circle cx="1337.5" cy="1723" r="2" fill="#ABB2BF"/><circle cx="1362.25" cy="1723" r="2" fill="#ABB2BF"/><circle cx=".5" cy="2035" r="2" fill="#ABB2BF"/><circle cx="25.25" cy="2035" r="2" fill="#ABB2BF"/><circle cx="50" cy="2035" r="2" fill="#ABB2BF"/><circle cx=".5" cy="2059.75" r="2" fill="#ABB2BF"/><circle cx="25.25" cy="2059.75" r="2" fill="#ABB2BF"/><circle cx="50" cy="2059.75" r="2" fill="#ABB2BF"/><circle cx=".5" cy="2084.5" r="2" fill="#ABB2BF"/><circle cx="25.25" cy="2084.5" r="2" fill="#ABB2BF"/><circle cx="50" cy="2084.5" r="2" fill="#ABB2BF"/><circle cx=".5" cy="2109.25" r="2" fill="#ABB2BF"/><circle cx="25.25" cy="2109.25" r="2" fill="#ABB2BF"/><circle cx="50" cy="2109.25" r="2" fill="#ABB2BF"/><circle cx=".5" cy="2134" r="2" fill="#ABB2BF"/><circle cx="25.25" cy="2134" r="2" fill="#ABB2BF"/><circle cx="50" cy="2134" r="2" fill="#ABB2BF"/><path stroke="#ABB2BF" d="M-76.5 1453.5h154v154h-154z"/><circle cx="16" cy="285" r="2" fill="#ABB2BF"/><circle cx="36" cy="285" r="2" fill="#ABB2BF"/><circle cx="16" cy="305" r="2" fill="#ABB2BF"/><circle cx="36" cy="305" r="2" fill="#ABB2BF"/><circle cx="16" cy="325" r="2" fill="#ABB2BF"/><circle cx="36" cy="325" r="2" fill="#ABB2BF"/><circle cx="16" cy="345" r="2" fill="#ABB2BF"/><circle cx="36" cy="345" r="2" fill="#ABB2BF"/><circle cx="16" cy="365" r="2" fill="#ABB2BF"/><circle cx="36" cy="365" r="2" fill="#ABB2BF"/><path stroke="#ABB2BF" d="M1298.5 488.5h154v154h-154zm-14-488h90v90h-90z"/></svg>